<svg xmlns="http://www.w3.org/2000/svg" xml:space="preserve" viewBox="0 0 900 900">
  <path fill="#1a1a1a" d="M450 150c-100 0-150 10-200 60-25 25-75 175-75 310 0 110 30 140 60 140h35l-50 90h100l20-90h220l20 90h100l-50-90h35c30 0 60-30 60-140 0-135-50-285-75-310-50-50-100-60-200-60Zm0 45c105 0 140 25 170 55 15 15 45 125 45 200 0 50-19.95374 75-50 75H285c-30.04626 0-50-25-50-75 0-75 30-185 45-200 30-30 65-55 170-55zM317.5 565c15.18783 0 27.5 12.31217 27.5 27.5S332.68783 620 317.5 620 290 607.68783 290 592.5s12.31217-27.5 27.5-27.5zm265 0c15.18783 0 27.5 12.31217 27.5 27.5S597.68783 620 582.5 620 555 607.68783 555 592.5s12.31217-27.5 27.5-27.5z"/>
</svg>
